<mxfile host="app.diagrams.net" modified="2020-10-07T08:43:47.395Z" agent="5.0 (Windows NT 6.1; WOW64) AppleWebKit/537.36 (KHTML, like Gecko) Chrome/85.0.4183.121 Safari/537.36" etag="rEw8Uq0-KL01036Pyqjo" version="13.7.7" type="gitlab">
  <diagram id="C5RBs43oDa-KdzZeNtuy" name="Page-1">
    <mxGraphModel dx="1422" dy="1959" grid="1" gridSize="10" guides="1" tooltips="1" connect="1" arrows="1" fold="1" page="1" pageScale="1" pageWidth="827" pageHeight="1169" background="#ffffff" math="0" shadow="0">
      <root>
        <mxCell id="WIyWlLk6GJQsqaUBKTNV-0" />
        <mxCell id="WIyWlLk6GJQsqaUBKTNV-1" parent="WIyWlLk6GJQsqaUBKTNV-0" />
        <mxCell id="MVKSW0jM2tbk2f1vbTIU-30" style="edgeStyle=orthogonalEdgeStyle;rounded=0;orthogonalLoop=1;jettySize=auto;html=1;exitX=0.5;exitY=1;exitDx=0;exitDy=0;endArrow=blockThin;endFill=0;fontColor=none;entryX=-0.017;entryY=0.091;entryDx=0;entryDy=0;entryPerimeter=0;" parent="WIyWlLk6GJQsqaUBKTNV-1" source="MVKSW0jM2tbk2f1vbTIU-24" target="MVKSW0jM2tbk2f1vbTIU-8" edge="1">
          <mxGeometry relative="1" as="geometry">
            <mxPoint x="470" y="460" as="targetPoint" />
            <Array as="points">
              <mxPoint x="470" y="421" />
            </Array>
          </mxGeometry>
        </mxCell>
        <mxCell id="MVKSW0jM2tbk2f1vbTIU-29" style="edgeStyle=orthogonalEdgeStyle;rounded=0;orthogonalLoop=1;jettySize=auto;html=1;exitX=0.5;exitY=1;exitDx=0;exitDy=0;endArrow=blockThin;endFill=0;fontColor=none;entryX=0.25;entryY=0;entryDx=0;entryDy=0;" parent="WIyWlLk6GJQsqaUBKTNV-1" source="MVKSW0jM2tbk2f1vbTIU-20" target="MVKSW0jM2tbk2f1vbTIU-8" edge="1">
          <mxGeometry relative="1" as="geometry">
            <mxPoint x="590" y="280" as="targetPoint" />
            <Array as="points">
              <mxPoint x="550" y="318" />
            </Array>
          </mxGeometry>
        </mxCell>
        <mxCell id="MVKSW0jM2tbk2f1vbTIU-31" style="edgeStyle=orthogonalEdgeStyle;rounded=0;orthogonalLoop=1;jettySize=auto;html=1;exitX=0.5;exitY=1;exitDx=0;exitDy=0;entryX=0.75;entryY=0;entryDx=0;entryDy=0;endArrow=blockThin;endFill=0;fontColor=none;" parent="WIyWlLk6GJQsqaUBKTNV-1" source="MVKSW0jM2tbk2f1vbTIU-16" target="MVKSW0jM2tbk2f1vbTIU-8" edge="1">
          <mxGeometry relative="1" as="geometry" />
        </mxCell>
        <mxCell id="MVKSW0jM2tbk2f1vbTIU-32" style="edgeStyle=orthogonalEdgeStyle;rounded=0;orthogonalLoop=1;jettySize=auto;html=1;exitX=0;exitY=0.5;exitDx=0;exitDy=0;entryX=1;entryY=0;entryDx=0;entryDy=0;endArrow=openThin;endFill=0;fontColor=none;dashed=1;" parent="WIyWlLk6GJQsqaUBKTNV-1" source="MVKSW0jM2tbk2f1vbTIU-3" target="MVKSW0jM2tbk2f1vbTIU-8" edge="1">
          <mxGeometry relative="1" as="geometry">
            <mxPoint x="670" y="327" as="targetPoint" />
            <Array as="points">
              <mxPoint x="840" y="360" />
              <mxPoint x="670" y="360" />
            </Array>
          </mxGeometry>
        </mxCell>
        <mxCell id="MVKSW0jM2tbk2f1vbTIU-33" value="&amp;lt;&amp;lt;Use&amp;gt;&amp;gt;" style="text;html=1;strokeColor=none;fillColor=none;align=center;verticalAlign=middle;whiteSpace=wrap;rounded=0;fontColor=none;" parent="WIyWlLk6GJQsqaUBKTNV-1" vertex="1">
          <mxGeometry x="680" y="380" width="40" height="20" as="geometry" />
        </mxCell>
        <mxCell id="MVKSW0jM2tbk2f1vbTIU-39" style="edgeStyle=orthogonalEdgeStyle;rounded=0;orthogonalLoop=1;jettySize=auto;html=1;exitX=1;exitY=0.5;exitDx=0;exitDy=0;dashed=1;endArrow=openThin;endFill=0;fontColor=none;" parent="WIyWlLk6GJQsqaUBKTNV-1" source="MVKSW0jM2tbk2f1vbTIU-3" edge="1">
          <mxGeometry relative="1" as="geometry">
            <mxPoint x="1150" y="410" as="targetPoint" />
            <Array as="points">
              <mxPoint x="1110" y="327" />
              <mxPoint x="1110" y="410" />
            </Array>
          </mxGeometry>
        </mxCell>
        <mxCell id="MVKSW0jM2tbk2f1vbTIU-40" value="&amp;lt;&amp;lt;Create&amp;gt;&amp;gt;" style="text;html=1;strokeColor=none;fillColor=none;align=center;verticalAlign=middle;whiteSpace=wrap;rounded=0;fontColor=none;" parent="WIyWlLk6GJQsqaUBKTNV-1" vertex="1">
          <mxGeometry x="1100" y="420" width="40" height="20" as="geometry" />
        </mxCell>
        <mxCell id="MVKSW0jM2tbk2f1vbTIU-46" value="&amp;lt;&amp;lt;Use&amp;gt;&amp;gt;" style="text;html=1;strokeColor=none;fillColor=none;align=center;verticalAlign=middle;whiteSpace=wrap;rounded=0;fontColor=none;" parent="WIyWlLk6GJQsqaUBKTNV-1" vertex="1">
          <mxGeometry x="910" y="128" width="40" height="20" as="geometry" />
        </mxCell>
        <mxCell id="MVKSW0jM2tbk2f1vbTIU-76" style="edgeStyle=orthogonalEdgeStyle;rounded=0;orthogonalLoop=1;jettySize=auto;html=1;exitX=0.5;exitY=1;exitDx=0;exitDy=0;entryX=0.5;entryY=0;entryDx=0;entryDy=0;endArrow=openThin;endFill=0;endSize=9;strokeWidth=1;fontColor=none;dashed=1;" parent="WIyWlLk6GJQsqaUBKTNV-1" source="MVKSW0jM2tbk2f1vbTIU-51" target="MVKSW0jM2tbk2f1vbTIU-47" edge="1">
          <mxGeometry relative="1" as="geometry" />
        </mxCell>
        <mxCell id="MVKSW0jM2tbk2f1vbTIU-87" style="edgeStyle=orthogonalEdgeStyle;rounded=0;orthogonalLoop=1;jettySize=auto;html=1;exitX=1;exitY=0.25;exitDx=0;exitDy=0;entryX=0.563;entryY=0;entryDx=0;entryDy=0;entryPerimeter=0;endArrow=openThin;endFill=0;endSize=9;strokeWidth=1;fontColor=none;dashed=1;" parent="WIyWlLk6GJQsqaUBKTNV-1" source="MVKSW0jM2tbk2f1vbTIU-51" target="MVKSW0jM2tbk2f1vbTIU-74" edge="1">
          <mxGeometry relative="1" as="geometry" />
        </mxCell>
        <mxCell id="MVKSW0jM2tbk2f1vbTIU-99" style="edgeStyle=orthogonalEdgeStyle;rounded=0;orthogonalLoop=1;jettySize=auto;html=1;exitX=0.5;exitY=0;exitDx=0;exitDy=0;entryX=0.5;entryY=0;entryDx=0;entryDy=0;endArrow=blockThin;endFill=0;endSize=9;strokeWidth=1;fontColor=none;" parent="WIyWlLk6GJQsqaUBKTNV-1" source="MVKSW0jM2tbk2f1vbTIU-51" target="MVKSW0jM2tbk2f1vbTIU-90" edge="1">
          <mxGeometry relative="1" as="geometry" />
        </mxCell>
        <mxCell id="MVKSW0jM2tbk2f1vbTIU-57" value="&amp;lt;&amp;lt;Use&amp;gt;&amp;gt;" style="text;html=1;strokeColor=none;fillColor=none;align=center;verticalAlign=middle;whiteSpace=wrap;rounded=0;fontColor=none;" parent="WIyWlLk6GJQsqaUBKTNV-1" vertex="1">
          <mxGeometry x="1090" y="148" width="40" height="20" as="geometry" />
        </mxCell>
        <mxCell id="MVKSW0jM2tbk2f1vbTIU-71" style="edgeStyle=orthogonalEdgeStyle;rounded=0;orthogonalLoop=1;jettySize=auto;html=1;exitX=1;exitY=0.5;exitDx=0;exitDy=0;endArrow=block;endFill=0;fontColor=none;endSize=9;" parent="WIyWlLk6GJQsqaUBKTNV-1" source="MVKSW0jM2tbk2f1vbTIU-67" edge="1">
          <mxGeometry relative="1" as="geometry">
            <mxPoint x="620" y="-31" as="targetPoint" />
            <Array as="points">
              <mxPoint x="530" y="-31" />
            </Array>
          </mxGeometry>
        </mxCell>
        <mxCell id="MVKSW0jM2tbk2f1vbTIU-83" style="edgeStyle=orthogonalEdgeStyle;rounded=0;orthogonalLoop=1;jettySize=auto;html=1;exitX=0.5;exitY=0;exitDx=0;exitDy=0;entryX=0.5;entryY=1;entryDx=0;entryDy=0;dashed=1;endArrow=openThin;endFill=0;endSize=9;strokeWidth=1;fontColor=none;" parent="WIyWlLk6GJQsqaUBKTNV-1" source="MVKSW0jM2tbk2f1vbTIU-34" target="MVKSW0jM2tbk2f1vbTIU-79" edge="1">
          <mxGeometry relative="1" as="geometry" />
        </mxCell>
        <mxCell id="MVKSW0jM2tbk2f1vbTIU-85" style="edgeStyle=orthogonalEdgeStyle;rounded=0;orthogonalLoop=1;jettySize=auto;html=1;exitX=0.5;exitY=0;exitDx=0;exitDy=0;endArrow=openThin;endFill=0;endSize=9;strokeWidth=1;fontColor=none;entryX=0.497;entryY=1.217;entryDx=0;entryDy=0;entryPerimeter=0;" parent="WIyWlLk6GJQsqaUBKTNV-1" source="MVKSW0jM2tbk2f1vbTIU-79" target="6pODGFfM2kmJy-mxRK_K-1" edge="1">
          <mxGeometry relative="1" as="geometry">
            <mxPoint x="1219" y="215" as="targetPoint" />
            <Array as="points">
              <mxPoint x="1235" y="244" />
              <mxPoint x="1235" y="221" />
            </Array>
          </mxGeometry>
        </mxCell>
        <mxCell id="MVKSW0jM2tbk2f1vbTIU-88" value="&amp;lt;&amp;lt;Use&amp;gt;&amp;gt;" style="text;html=1;strokeColor=none;fillColor=none;align=center;verticalAlign=middle;whiteSpace=wrap;rounded=0;fontColor=none;" parent="WIyWlLk6GJQsqaUBKTNV-1" vertex="1">
          <mxGeometry x="1490" y="30" width="40" height="20" as="geometry" />
        </mxCell>
        <mxCell id="MVKSW0jM2tbk2f1vbTIU-89" value="&amp;lt;&amp;lt;Use&amp;gt;&amp;gt;" style="text;html=1;strokeColor=none;fillColor=none;align=center;verticalAlign=middle;whiteSpace=wrap;rounded=0;fontColor=none;" parent="WIyWlLk6GJQsqaUBKTNV-1" vertex="1">
          <mxGeometry x="1490" y="184" width="40" height="20" as="geometry" />
        </mxCell>
        <mxCell id="MVKSW0jM2tbk2f1vbTIU-101" value="" style="endArrow=block;html=1;strokeWidth=1;fontColor=none;entryX=0.5;entryY=1;entryDx=0;entryDy=0;endFill=0;endSize=8;exitX=0.393;exitY=1.024;exitDx=0;exitDy=0;exitPerimeter=0;" parent="WIyWlLk6GJQsqaUBKTNV-1" target="MVKSW0jM2tbk2f1vbTIU-90" edge="1" source="6pODGFfM2kmJy-mxRK_K-2">
          <mxGeometry width="50" height="50" relative="1" as="geometry">
            <mxPoint x="1213" y="530" as="sourcePoint" />
            <mxPoint x="1829.6799999999998" y="192.00200000000018" as="targetPoint" />
            <Array as="points">
              <mxPoint x="1213" y="480" />
              <mxPoint x="1213" y="530" />
              <mxPoint x="1240" y="530" />
              <mxPoint x="1830" y="530" />
            </Array>
          </mxGeometry>
        </mxCell>
        <mxCell id="MVKSW0jM2tbk2f1vbTIU-102" style="edgeStyle=orthogonalEdgeStyle;rounded=0;orthogonalLoop=1;jettySize=auto;html=1;exitX=0;exitY=0.5;exitDx=0;exitDy=0;entryX=1;entryY=0.5;entryDx=0;entryDy=0;endArrow=diamond;endFill=1;endSize=8;strokeWidth=1;fontColor=none;" parent="WIyWlLk6GJQsqaUBKTNV-1" edge="1">
          <mxGeometry relative="1" as="geometry">
            <mxPoint x="2010" y="184" as="sourcePoint" />
            <mxPoint x="1910" y="184" as="targetPoint" />
          </mxGeometry>
        </mxCell>
        <mxCell id="MVKSW0jM2tbk2f1vbTIU-106" value="" style="endArrow=classic;html=1;strokeWidth=1;fontColor=none;exitX=1;exitY=0;exitDx=0;exitDy=0;entryX=0.75;entryY=1;entryDx=0;entryDy=0;" parent="WIyWlLk6GJQsqaUBKTNV-1" source="6pODGFfM2kmJy-mxRK_K-17" target="MVKSW0jM2tbk2f1vbTIU-90" edge="1">
          <mxGeometry width="50" height="50" relative="1" as="geometry">
            <mxPoint x="630" y="490" as="sourcePoint" />
            <mxPoint x="680" y="440" as="targetPoint" />
            <Array as="points">
              <mxPoint x="1080" y="600" />
              <mxPoint x="1320" y="600" />
              <mxPoint x="1870" y="600" />
            </Array>
          </mxGeometry>
        </mxCell>
        <mxCell id="MVKSW0jM2tbk2f1vbTIU-130" style="edgeStyle=orthogonalEdgeStyle;rounded=0;orthogonalLoop=1;jettySize=auto;html=1;exitX=1;exitY=-0.115;exitDx=0;exitDy=0;endArrow=openThin;endFill=0;endSize=8;strokeWidth=1;fontColor=none;entryX=0.881;entryY=0.019;entryDx=0;entryDy=0;entryPerimeter=0;dashed=1;exitPerimeter=0;" parent="WIyWlLk6GJQsqaUBKTNV-1" source="MVKSW0jM2tbk2f1vbTIU-156" target="MVKSW0jM2tbk2f1vbTIU-74" edge="1">
          <mxGeometry relative="1" as="geometry">
            <mxPoint x="1590" y="90" as="targetPoint" />
          </mxGeometry>
        </mxCell>
        <mxCell id="MVKSW0jM2tbk2f1vbTIU-134" style="edgeStyle=orthogonalEdgeStyle;rounded=0;orthogonalLoop=1;jettySize=auto;html=1;exitX=0.5;exitY=1;exitDx=0;exitDy=0;entryX=0.5;entryY=0;entryDx=0;entryDy=0;dashed=1;endArrow=openThin;endFill=0;endSize=8;strokeWidth=1;fontColor=none;" parent="WIyWlLk6GJQsqaUBKTNV-1" source="MVKSW0jM2tbk2f1vbTIU-126" target="MVKSW0jM2tbk2f1vbTIU-59" edge="1">
          <mxGeometry relative="1" as="geometry">
            <Array as="points">
              <mxPoint x="700" y="-156" />
            </Array>
          </mxGeometry>
        </mxCell>
        <mxCell id="MVKSW0jM2tbk2f1vbTIU-133" value="&amp;lt;&amp;lt;Use&amp;gt;&amp;gt;" style="text;html=1;strokeColor=none;fillColor=none;align=center;verticalAlign=middle;whiteSpace=wrap;rounded=0;fontColor=none;" parent="WIyWlLk6GJQsqaUBKTNV-1" vertex="1">
          <mxGeometry x="1600" y="30" width="40" height="20" as="geometry" />
        </mxCell>
        <mxCell id="MVKSW0jM2tbk2f1vbTIU-135" value="&amp;lt;&amp;lt;Create&amp;gt;&amp;gt;" style="text;html=1;strokeColor=none;fillColor=none;align=center;verticalAlign=middle;whiteSpace=wrap;rounded=0;fontColor=none;" parent="WIyWlLk6GJQsqaUBKTNV-1" vertex="1">
          <mxGeometry x="710" y="-110" width="40" height="20" as="geometry" />
        </mxCell>
        <mxCell id="MVKSW0jM2tbk2f1vbTIU-139" style="edgeStyle=orthogonalEdgeStyle;rounded=0;orthogonalLoop=1;jettySize=auto;html=1;exitX=1;exitY=0.5;exitDx=0;exitDy=0;startArrow=none;startFill=0;startSize=8;endArrow=block;endFill=0;endSize=8;strokeWidth=1;fontColor=none;entryX=-0.006;entryY=0.189;entryDx=0;entryDy=0;entryPerimeter=0;" parent="WIyWlLk6GJQsqaUBKTNV-1" source="MVKSW0jM2tbk2f1vbTIU-137" target="MVKSW0jM2tbk2f1vbTIU-126" edge="1">
          <mxGeometry relative="1" as="geometry">
            <mxPoint x="610" y="-221" as="targetPoint" />
            <Array as="points">
              <mxPoint x="530" y="-225" />
              <mxPoint x="610" y="-225" />
              <mxPoint x="610" y="-222" />
            </Array>
          </mxGeometry>
        </mxCell>
        <mxCell id="MVKSW0jM2tbk2f1vbTIU-140" style="edgeStyle=orthogonalEdgeStyle;rounded=0;orthogonalLoop=1;jettySize=auto;html=1;exitX=0.5;exitY=1;exitDx=0;exitDy=0;entryX=0.5;entryY=0;entryDx=0;entryDy=0;startArrow=none;startFill=0;startSize=8;endArrow=openThin;endFill=0;endSize=8;strokeWidth=1;fontColor=none;dashed=1;" parent="WIyWlLk6GJQsqaUBKTNV-1" source="MVKSW0jM2tbk2f1vbTIU-137" target="MVKSW0jM2tbk2f1vbTIU-67" edge="1">
          <mxGeometry relative="1" as="geometry" />
        </mxCell>
        <mxCell id="MVKSW0jM2tbk2f1vbTIU-141" value="&amp;lt;&amp;lt;Create&amp;gt;&amp;gt;" style="text;html=1;strokeColor=none;fillColor=none;align=center;verticalAlign=middle;whiteSpace=wrap;rounded=0;fontColor=none;" parent="WIyWlLk6GJQsqaUBKTNV-1" vertex="1">
          <mxGeometry x="480" y="-103" width="40" height="20" as="geometry" />
        </mxCell>
        <mxCell id="5KWjt4JvU5Wqs_fnBMRH-2" style="edgeStyle=orthogonalEdgeStyle;rounded=0;orthogonalLoop=1;jettySize=auto;html=1;exitX=0.5;exitY=0;exitDx=0;exitDy=0;endArrow=none;endFill=0;dashed=1;startArrow=openThin;startFill=0;entryX=0.489;entryY=1.115;entryDx=0;entryDy=0;entryPerimeter=0;" parent="WIyWlLk6GJQsqaUBKTNV-1" source="MVKSW0jM2tbk2f1vbTIU-69" target="6pODGFfM2kmJy-mxRK_K-22" edge="1">
          <mxGeometry relative="1" as="geometry">
            <mxPoint x="950.6666666666665" y="-180" as="targetPoint" />
            <Array as="points">
              <mxPoint x="950" y="-162" />
            </Array>
          </mxGeometry>
        </mxCell>
        <mxCell id="MVKSW0jM2tbk2f1vbTIU-148" value="" style="endArrow=none;dashed=1;html=1;strokeWidth=1;fontColor=none;entryX=-0.012;entryY=-0.2;entryDx=0;entryDy=0;entryPerimeter=0;exitX=1;exitY=0.25;exitDx=0;exitDy=0;endFill=0;startArrow=open;startFill=0;" parent="WIyWlLk6GJQsqaUBKTNV-1" source="YCm6hbGx7Tqcxz9hwrIw-10" target="MVKSW0jM2tbk2f1vbTIU-144" edge="1">
          <mxGeometry width="50" height="50" relative="1" as="geometry">
            <mxPoint x="810" y="90" as="sourcePoint" />
            <mxPoint x="860" y="40" as="targetPoint" />
            <Array as="points" />
          </mxGeometry>
        </mxCell>
        <mxCell id="MVKSW0jM2tbk2f1vbTIU-149" value="&amp;lt;&amp;lt;Become&amp;gt;&amp;gt;" style="text;html=1;strokeColor=none;fillColor=none;align=center;verticalAlign=middle;whiteSpace=wrap;rounded=0;fontColor=none;" parent="WIyWlLk6GJQsqaUBKTNV-1" vertex="1">
          <mxGeometry x="790" y="40" width="40" height="17" as="geometry" />
        </mxCell>
        <mxCell id="MVKSW0jM2tbk2f1vbTIU-161" style="edgeStyle=orthogonalEdgeStyle;rounded=0;orthogonalLoop=1;jettySize=auto;html=1;entryX=0;entryY=0.5;entryDx=0;entryDy=0;startArrow=none;startFill=0;startSize=8;endArrow=block;endFill=0;endSize=8;strokeWidth=1;fontColor=none;" parent="WIyWlLk6GJQsqaUBKTNV-1" edge="1">
          <mxGeometry relative="1" as="geometry">
            <mxPoint x="800" y="-221" as="sourcePoint" />
            <mxPoint x="870" y="-221.5" as="targetPoint" />
            <Array as="points">
              <mxPoint x="835" y="-221" />
            </Array>
          </mxGeometry>
        </mxCell>
        <mxCell id="5KWjt4JvU5Wqs_fnBMRH-5" value="" style="endArrow=open;html=1;dashed=1;endFill=0;entryX=0.688;entryY=1.1;entryDx=0;entryDy=0;entryPerimeter=0;" parent="WIyWlLk6GJQsqaUBKTNV-1" target="gtPNyip63HOGCp3EMdQr-5" edge="1">
          <mxGeometry width="50" height="50" relative="1" as="geometry">
            <mxPoint x="980" y="299" as="sourcePoint" />
            <mxPoint x="900" y="140" as="targetPoint" />
            <Array as="points" />
          </mxGeometry>
        </mxCell>
        <mxCell id="EFQg02jSNUdTk51ZG_iw-3" value="" style="endArrow=open;html=1;exitX=1;exitY=0.5;exitDx=0;exitDy=0;dashed=1;endFill=0;" parent="WIyWlLk6GJQsqaUBKTNV-1" source="MVKSW0jM2tbk2f1vbTIU-79" edge="1">
          <mxGeometry width="50" height="50" relative="1" as="geometry">
            <mxPoint x="1300" y="420" as="sourcePoint" />
            <mxPoint x="1539" y="180" as="targetPoint" />
            <Array as="points">
              <mxPoint x="1539" y="277" />
            </Array>
          </mxGeometry>
        </mxCell>
        <mxCell id="EFQg02jSNUdTk51ZG_iw-5" value="" style="endArrow=open;html=1;dashed=1;endFill=0;exitX=0.906;exitY=1.15;exitDx=0;exitDy=0;exitPerimeter=0;" parent="WIyWlLk6GJQsqaUBKTNV-1" edge="1" source="gtPNyip63HOGCp3EMdQr-5">
          <mxGeometry width="50" height="50" relative="1" as="geometry">
            <mxPoint x="983" y="117" as="sourcePoint" />
            <mxPoint x="1150" y="140" as="targetPoint" />
            <Array as="points">
              <mxPoint x="1015" y="140" />
            </Array>
          </mxGeometry>
        </mxCell>
        <mxCell id="vX9UZndPWUMwB3qCK8qp-0" style="edgeStyle=orthogonalEdgeStyle;rounded=0;orthogonalLoop=1;jettySize=auto;html=1;exitX=0.013;exitY=0.5;exitDx=0;exitDy=0;entryX=1;entryY=0.25;entryDx=0;entryDy=0;endArrow=diamond;endFill=1;endSize=8;strokeWidth=1;fontColor=none;exitPerimeter=0;" parent="WIyWlLk6GJQsqaUBKTNV-1" source="vX9UZndPWUMwB3qCK8qp-10" target="vX9UZndPWUMwB3qCK8qp-15" edge="1">
          <mxGeometry relative="1" as="geometry">
            <mxPoint x="2020" y="160" as="sourcePoint" />
            <mxPoint x="1920" y="160" as="targetPoint" />
            <Array as="points">
              <mxPoint x="1340" y="-460" />
              <mxPoint x="1340" y="-355" />
            </Array>
          </mxGeometry>
        </mxCell>
        <mxCell id="vX9UZndPWUMwB3qCK8qp-20" style="edgeStyle=orthogonalEdgeStyle;rounded=0;orthogonalLoop=1;jettySize=auto;html=1;dashed=1;endArrow=open;endFill=0;fontColor=none;" parent="WIyWlLk6GJQsqaUBKTNV-1" source="vX9UZndPWUMwB3qCK8qp-3" edge="1">
          <mxGeometry relative="1" as="geometry">
            <Array as="points">
              <mxPoint x="1519" y="-490" />
            </Array>
            <mxPoint x="970.0799999999999" y="73" as="sourcePoint" />
            <mxPoint x="1519" y="-490" as="targetPoint" />
          </mxGeometry>
        </mxCell>
        <mxCell id="vX9UZndPWUMwB3qCK8qp-21" value="&amp;lt;&amp;lt;Use&amp;gt;&amp;gt;" style="text;html=1;strokeColor=none;fillColor=none;align=center;verticalAlign=middle;whiteSpace=wrap;rounded=0;fontColor=none;" parent="WIyWlLk6GJQsqaUBKTNV-1" vertex="1">
          <mxGeometry x="1460" y="-520" width="40" height="20" as="geometry" />
        </mxCell>
        <mxCell id="vX9UZndPWUMwB3qCK8qp-22" style="edgeStyle=orthogonalEdgeStyle;rounded=0;orthogonalLoop=1;jettySize=auto;html=1;dashed=1;endArrow=blockThin;endFill=0;fontColor=none;exitX=0.513;exitY=1;exitDx=0;exitDy=0;exitPerimeter=0;entryX=0.75;entryY=0;entryDx=0;entryDy=0;" parent="WIyWlLk6GJQsqaUBKTNV-1" target="MVKSW0jM2tbk2f1vbTIU-69" edge="1">
          <mxGeometry relative="1" as="geometry">
            <Array as="points">
              <mxPoint x="1192" y="-140" />
              <mxPoint x="990" y="-140" />
            </Array>
            <mxPoint x="1192.08" y="-280" as="sourcePoint" />
            <mxPoint x="990" y="-60" as="targetPoint" />
          </mxGeometry>
        </mxCell>
        <mxCell id="vX9UZndPWUMwB3qCK8qp-23" value="&amp;lt;&amp;lt;Use&amp;gt;&amp;gt;" style="text;html=1;strokeColor=none;fillColor=none;align=center;verticalAlign=middle;whiteSpace=wrap;rounded=0;fontColor=none;" parent="WIyWlLk6GJQsqaUBKTNV-1" vertex="1">
          <mxGeometry x="1000" y="-130" width="40" height="20" as="geometry" />
        </mxCell>
        <mxCell id="vX9UZndPWUMwB3qCK8qp-27" style="edgeStyle=orthogonalEdgeStyle;rounded=0;orthogonalLoop=1;jettySize=auto;html=1;exitX=1;exitY=0.5;exitDx=0;exitDy=0;endArrow=block;endFill=0;fontColor=none;endSize=9;" parent="WIyWlLk6GJQsqaUBKTNV-1" source="MVKSW0jM2tbk2f1vbTIU-59" edge="1">
          <mxGeometry relative="1" as="geometry">
            <mxPoint x="540" y="-23" as="sourcePoint" />
            <mxPoint x="869" y="-17" as="targetPoint" />
          </mxGeometry>
        </mxCell>
        <mxCell id="6pODGFfM2kmJy-mxRK_K-18" value="&amp;lt;&amp;lt;Create&amp;gt;&amp;gt;" style="text;html=1;strokeColor=none;fillColor=none;align=center;verticalAlign=middle;whiteSpace=wrap;rounded=0;fontColor=none;" parent="WIyWlLk6GJQsqaUBKTNV-1" vertex="1">
          <mxGeometry x="1250" y="325" width="40" height="20" as="geometry" />
        </mxCell>
        <mxCell id="gtPNyip63HOGCp3EMdQr-7" style="edgeStyle=orthogonalEdgeStyle;rounded=0;orthogonalLoop=1;jettySize=auto;html=1;exitX=1;exitY=0.5;exitDx=0;exitDy=0;endArrow=diamond;endFill=1;" parent="WIyWlLk6GJQsqaUBKTNV-1" edge="1">
          <mxGeometry relative="1" as="geometry">
            <mxPoint x="655" y="50" as="targetPoint" />
            <mxPoint x="580" y="115.00000000000023" as="sourcePoint" />
          </mxGeometry>
        </mxCell>
        <mxCell id="gtPNyip63HOGCp3EMdQr-16" style="edgeStyle=orthogonalEdgeStyle;rounded=0;orthogonalLoop=1;jettySize=auto;html=1;exitX=0.5;exitY=0;exitDx=0;exitDy=0;entryX=0.494;entryY=1;entryDx=0;entryDy=0;entryPerimeter=0;endArrow=openThin;endFill=0;dashed=1;" parent="WIyWlLk6GJQsqaUBKTNV-1" source="gtPNyip63HOGCp3EMdQr-10" target="MVKSW0jM2tbk2f1vbTIU-3" edge="1">
          <mxGeometry relative="1" as="geometry" />
        </mxCell>
        <mxCell id="MVKSW0jM2tbk2f1vbTIU-90" value="Deck" style="swimlane;fontStyle=1;align=center;verticalAlign=top;childLayout=stackLayout;horizontal=1;startSize=26;horizontalStack=0;resizeParent=1;resizeParentMax=0;resizeLast=0;collapsible=1;marginBottom=0;fontColor=none;" parent="WIyWlLk6GJQsqaUBKTNV-1" vertex="1">
          <mxGeometry x="1750" y="130" width="160" height="120" as="geometry" />
        </mxCell>
        <mxCell id="EFQg02jSNUdTk51ZG_iw-4" value="+id_deck : str" style="text;html=1;align=left;verticalAlign=middle;resizable=0;points=[];autosize=1;" parent="MVKSW0jM2tbk2f1vbTIU-90" vertex="1">
          <mxGeometry y="26" width="160" height="20" as="geometry" />
        </mxCell>
        <mxCell id="MVKSW0jM2tbk2f1vbTIU-92" value="" style="line;strokeWidth=1;fillColor=none;align=left;verticalAlign=middle;spacingTop=-1;spacingLeft=3;spacingRight=3;rotatable=0;labelPosition=right;points=[];portConstraint=eastwest;" parent="MVKSW0jM2tbk2f1vbTIU-90" vertex="1">
          <mxGeometry y="46" width="160" height="14" as="geometry" />
        </mxCell>
        <mxCell id="MVKSW0jM2tbk2f1vbTIU-122" value="+ createNewDeck() : API" style="text;html=1;align=left;verticalAlign=middle;resizable=0;points=[];autosize=1;fontColor=none;" parent="MVKSW0jM2tbk2f1vbTIU-90" vertex="1">
          <mxGeometry y="60" width="160" height="20" as="geometry" />
        </mxCell>
        <mxCell id="MVKSW0jM2tbk2f1vbTIU-119" value="+ shuffle() : API" style="text;html=1;align=left;verticalAlign=middle;resizable=0;points=[];autosize=1;fontColor=none;" parent="MVKSW0jM2tbk2f1vbTIU-90" vertex="1">
          <mxGeometry y="80" width="160" height="20" as="geometry" />
        </mxCell>
        <mxCell id="gtPNyip63HOGCp3EMdQr-19" value="+ DeckDraw() : API" style="text;html=1;align=left;verticalAlign=middle;resizable=0;points=[];autosize=1;fontColor=none;" parent="MVKSW0jM2tbk2f1vbTIU-90" vertex="1">
          <mxGeometry y="100" width="160" height="20" as="geometry" />
        </mxCell>
        <mxCell id="MVKSW0jM2tbk2f1vbTIU-69" value="Guest" style="swimlane;fontStyle=1;align=center;verticalAlign=top;childLayout=stackLayout;horizontal=1;startSize=26;horizontalStack=0;resizeParent=1;resizeParentMax=0;resizeLast=0;collapsible=1;marginBottom=0;fontColor=none;" parent="WIyWlLk6GJQsqaUBKTNV-1" vertex="1">
          <mxGeometry x="870" y="-103" width="160" height="220" as="geometry" />
        </mxCell>
        <mxCell id="6pODGFfM2kmJy-mxRK_K-14" value="+ id : str" style="text;html=1;align=left;verticalAlign=middle;resizable=0;points=[];autosize=1;fontColor=none;" parent="MVKSW0jM2tbk2f1vbTIU-69" vertex="1">
          <mxGeometry y="26" width="160" height="20" as="geometry" />
        </mxCell>
        <mxCell id="6pODGFfM2kmJy-mxRK_K-15" value="+ userType: str" style="text;html=1;align=left;verticalAlign=middle;resizable=0;points=[];autosize=1;fontColor=none;" parent="MVKSW0jM2tbk2f1vbTIU-69" vertex="1">
          <mxGeometry y="46" width="160" height="20" as="geometry" />
        </mxCell>
        <mxCell id="MVKSW0jM2tbk2f1vbTIU-70" value="" style="line;strokeWidth=1;fillColor=none;align=left;verticalAlign=middle;spacingTop=-1;spacingLeft=3;spacingRight=3;rotatable=0;labelPosition=right;points=[];portConstraint=eastwest;" parent="MVKSW0jM2tbk2f1vbTIU-69" vertex="1">
          <mxGeometry y="66" width="160" height="14" as="geometry" />
        </mxCell>
        <mxCell id="MVKSW0jM2tbk2f1vbTIU-151" value="+ Play()" style="text;html=1;align=left;verticalAlign=middle;resizable=0;points=[];autosize=1;fontColor=none;" parent="MVKSW0jM2tbk2f1vbTIU-69" vertex="1">
          <mxGeometry y="80" width="160" height="20" as="geometry" />
        </mxCell>
        <mxCell id="gtPNyip63HOGCp3EMdQr-3" value="+ ChooseGame()" style="text;html=1;align=left;verticalAlign=middle;resizable=0;points=[];autosize=1;fontColor=none;" parent="MVKSW0jM2tbk2f1vbTIU-69" vertex="1">
          <mxGeometry y="100" width="160" height="20" as="geometry" />
        </mxCell>
        <mxCell id="MVKSW0jM2tbk2f1vbTIU-145" value="+ Quit()" style="text;html=1;align=left;verticalAlign=middle;resizable=0;points=[];autosize=1;fontColor=none;" parent="MVKSW0jM2tbk2f1vbTIU-69" vertex="1">
          <mxGeometry y="120" width="160" height="20" as="geometry" />
        </mxCell>
        <mxCell id="MVKSW0jM2tbk2f1vbTIU-144" value="+ createAccount()" style="text;html=1;align=left;verticalAlign=middle;resizable=0;points=[];autosize=1;fontColor=none;" parent="MVKSW0jM2tbk2f1vbTIU-69" vertex="1">
          <mxGeometry y="140" width="160" height="20" as="geometry" />
        </mxCell>
        <mxCell id="MVKSW0jM2tbk2f1vbTIU-142" value="+ connexion()" style="text;html=1;align=left;verticalAlign=middle;resizable=0;points=[];autosize=1;fontColor=none;" parent="MVKSW0jM2tbk2f1vbTIU-69" vertex="1">
          <mxGeometry y="160" width="160" height="20" as="geometry" />
        </mxCell>
        <mxCell id="gtPNyip63HOGCp3EMdQr-4" value="+ initEmptyGame()" style="text;html=1;align=left;verticalAlign=middle;resizable=0;points=[];autosize=1;fontColor=none;" parent="MVKSW0jM2tbk2f1vbTIU-69" vertex="1">
          <mxGeometry y="180" width="160" height="20" as="geometry" />
        </mxCell>
        <mxCell id="gtPNyip63HOGCp3EMdQr-5" value="+ joinGame()" style="text;html=1;align=left;verticalAlign=middle;resizable=0;points=[];autosize=1;fontColor=none;" parent="MVKSW0jM2tbk2f1vbTIU-69" vertex="1">
          <mxGeometry y="200" width="160" height="20" as="geometry" />
        </mxCell>
        <mxCell id="MVKSW0jM2tbk2f1vbTIU-126" value="JoueurDAO" style="swimlane;fontStyle=1;align=center;verticalAlign=top;childLayout=stackLayout;horizontal=1;startSize=26;horizontalStack=0;resizeParent=1;resizeParentMax=0;resizeLast=0;collapsible=1;marginBottom=0;fontColor=none;" parent="WIyWlLk6GJQsqaUBKTNV-1" vertex="1">
          <mxGeometry x="620" y="-238" width="180" height="82" as="geometry" />
        </mxCell>
        <mxCell id="MVKSW0jM2tbk2f1vbTIU-128" value="" style="line;strokeWidth=1;fillColor=none;align=left;verticalAlign=middle;spacingTop=-1;spacingLeft=3;spacingRight=3;rotatable=0;labelPosition=right;points=[];portConstraint=eastwest;" parent="MVKSW0jM2tbk2f1vbTIU-126" vertex="1">
          <mxGeometry y="26" width="180" height="4" as="geometry" />
        </mxCell>
        <mxCell id="6pODGFfM2kmJy-mxRK_K-21" value="+ GetAccountData() " style="text;strokeColor=none;fillColor=none;align=left;verticalAlign=top;spacingLeft=4;spacingRight=4;overflow=hidden;rotatable=0;points=[[0,0.5],[1,0.5]];portConstraint=eastwest;" parent="MVKSW0jM2tbk2f1vbTIU-126" vertex="1">
          <mxGeometry y="30" width="180" height="26" as="geometry" />
        </mxCell>
        <mxCell id="6pODGFfM2kmJy-mxRK_K-27" value="+ Update Account Credentials() " style="text;strokeColor=none;fillColor=none;align=left;verticalAlign=top;spacingLeft=4;spacingRight=4;overflow=hidden;rotatable=0;points=[[0,0.5],[1,0.5]];portConstraint=eastwest;" parent="MVKSW0jM2tbk2f1vbTIU-126" vertex="1">
          <mxGeometry y="56" width="180" height="26" as="geometry" />
        </mxCell>
        <mxCell id="MVKSW0jM2tbk2f1vbTIU-137" value="AdminDAO" style="swimlane;fontStyle=1;align=center;verticalAlign=top;childLayout=stackLayout;horizontal=1;startSize=26;horizontalStack=0;resizeParent=1;resizeParentMax=0;resizeLast=0;collapsible=1;marginBottom=0;fontColor=none;" parent="WIyWlLk6GJQsqaUBKTNV-1" vertex="1">
          <mxGeometry x="380" y="-238" width="150" height="86" as="geometry" />
        </mxCell>
        <mxCell id="MVKSW0jM2tbk2f1vbTIU-138" value="" style="line;strokeWidth=1;fillColor=none;align=left;verticalAlign=middle;spacingTop=-1;spacingLeft=3;spacingRight=3;rotatable=0;labelPosition=right;points=[];portConstraint=eastwest;" parent="MVKSW0jM2tbk2f1vbTIU-137" vertex="1">
          <mxGeometry y="26" width="150" height="8" as="geometry" />
        </mxCell>
        <mxCell id="6pODGFfM2kmJy-mxRK_K-23" value="+ InitDatabase() " style="text;strokeColor=none;fillColor=none;align=left;verticalAlign=top;spacingLeft=4;spacingRight=4;overflow=hidden;rotatable=0;points=[[0,0.5],[1,0.5]];portConstraint=eastwest;" parent="MVKSW0jM2tbk2f1vbTIU-137" vertex="1">
          <mxGeometry y="34" width="150" height="26" as="geometry" />
        </mxCell>
        <mxCell id="gtPNyip63HOGCp3EMdQr-0" value="+ GetAllUserData() " style="text;strokeColor=none;fillColor=none;align=left;verticalAlign=top;spacingLeft=4;spacingRight=4;overflow=hidden;rotatable=0;points=[[0,0.5],[1,0.5]];portConstraint=eastwest;" parent="MVKSW0jM2tbk2f1vbTIU-137" vertex="1">
          <mxGeometry y="60" width="150" height="26" as="geometry" />
        </mxCell>
        <mxCell id="MVKSW0jM2tbk2f1vbTIU-153" value="InvitéDAO" style="swimlane;fontStyle=1;align=center;verticalAlign=top;childLayout=stackLayout;horizontal=1;startSize=26;horizontalStack=0;resizeParent=1;resizeParentMax=0;resizeLast=0;collapsible=1;marginBottom=0;fontColor=none;" parent="WIyWlLk6GJQsqaUBKTNV-1" vertex="1">
          <mxGeometry x="870" y="-251" width="180" height="86" as="geometry" />
        </mxCell>
        <mxCell id="MVKSW0jM2tbk2f1vbTIU-155" value="" style="line;strokeWidth=1;fillColor=none;align=left;verticalAlign=middle;spacingTop=-1;spacingLeft=3;spacingRight=3;rotatable=0;labelPosition=right;points=[];portConstraint=eastwest;" parent="MVKSW0jM2tbk2f1vbTIU-153" vertex="1">
          <mxGeometry y="26" width="180" height="8" as="geometry" />
        </mxCell>
        <mxCell id="MVKSW0jM2tbk2f1vbTIU-156" value="+ addAccounttoData() " style="text;strokeColor=none;fillColor=none;align=left;verticalAlign=top;spacingLeft=4;spacingRight=4;overflow=hidden;rotatable=0;points=[[0,0.5],[1,0.5]];portConstraint=eastwest;" parent="MVKSW0jM2tbk2f1vbTIU-153" vertex="1">
          <mxGeometry y="34" width="180" height="26" as="geometry" />
        </mxCell>
        <mxCell id="6pODGFfM2kmJy-mxRK_K-22" value="+ CheckAccountCredentials() " style="text;strokeColor=none;fillColor=none;align=left;verticalAlign=top;spacingLeft=4;spacingRight=4;overflow=hidden;rotatable=0;points=[[0,0.5],[1,0.5]];portConstraint=eastwest;" parent="MVKSW0jM2tbk2f1vbTIU-153" vertex="1">
          <mxGeometry y="60" width="180" height="26" as="geometry" />
        </mxCell>
        <mxCell id="MVKSW0jM2tbk2f1vbTIU-74" value="DatabaseConnection" style="swimlane;fontStyle=1;align=center;verticalAlign=top;childLayout=stackLayout;horizontal=1;startSize=26;horizontalStack=0;resizeParent=1;resizeParentMax=0;resizeLast=0;collapsible=1;marginBottom=0;fontColor=none;" parent="WIyWlLk6GJQsqaUBKTNV-1" vertex="1">
          <mxGeometry x="1450" y="70" width="160" height="110" as="geometry" />
        </mxCell>
        <mxCell id="MVKSW0jM2tbk2f1vbTIU-75" value="" style="line;strokeWidth=1;fillColor=none;align=left;verticalAlign=middle;spacingTop=-1;spacingLeft=3;spacingRight=3;rotatable=0;labelPosition=right;points=[];portConstraint=eastwest;" parent="MVKSW0jM2tbk2f1vbTIU-74" vertex="1">
          <mxGeometry y="26" width="160" height="4" as="geometry" />
        </mxCell>
        <mxCell id="MVKSW0jM2tbk2f1vbTIU-146" value="+ getConnexion()" style="text;html=1;align=left;verticalAlign=middle;resizable=0;points=[];autosize=1;fontColor=none;" parent="MVKSW0jM2tbk2f1vbTIU-74" vertex="1">
          <mxGeometry y="30" width="160" height="20" as="geometry" />
        </mxCell>
        <mxCell id="EFQg02jSNUdTk51ZG_iw-0" value="+ closeConnexion()" style="text;html=1;align=left;verticalAlign=middle;resizable=0;points=[];autosize=1;fontColor=none;" parent="MVKSW0jM2tbk2f1vbTIU-74" vertex="1">
          <mxGeometry y="50" width="160" height="20" as="geometry" />
        </mxCell>
        <mxCell id="EFQg02jSNUdTk51ZG_iw-1" value="+ getInstance()" style="text;html=1;align=left;verticalAlign=middle;resizable=0;points=[];autosize=1;fontColor=none;" parent="MVKSW0jM2tbk2f1vbTIU-74" vertex="1">
          <mxGeometry y="70" width="160" height="20" as="geometry" />
        </mxCell>
        <mxCell id="6pODGFfM2kmJy-mxRK_K-26" value="+ saveInstance()" style="text;html=1;align=left;verticalAlign=middle;resizable=0;points=[];autosize=1;fontColor=none;" parent="MVKSW0jM2tbk2f1vbTIU-74" vertex="1">
          <mxGeometry y="90" width="160" height="20" as="geometry" />
        </mxCell>
        <mxCell id="vX9UZndPWUMwB3qCK8qp-1" value="MenuBackend" style="swimlane;fontStyle=1;align=center;verticalAlign=top;childLayout=stackLayout;horizontal=1;startSize=26;horizontalStack=0;resizeParent=1;resizeParentMax=0;resizeLast=0;collapsible=1;marginBottom=0;fontColor=none;" parent="WIyWlLk6GJQsqaUBKTNV-1" vertex="1">
          <mxGeometry x="1110" y="-530" width="160" height="80" as="geometry" />
        </mxCell>
        <mxCell id="vX9UZndPWUMwB3qCK8qp-2" value="" style="line;strokeWidth=1;fillColor=none;align=left;verticalAlign=middle;spacingTop=-1;spacingLeft=3;spacingRight=3;rotatable=0;labelPosition=right;points=[];portConstraint=eastwest;" parent="vX9UZndPWUMwB3qCK8qp-1" vertex="1">
          <mxGeometry y="26" width="160" height="14" as="geometry" />
        </mxCell>
        <mxCell id="vX9UZndPWUMwB3qCK8qp-3" value="+ Run()" style="text;html=1;align=left;verticalAlign=middle;resizable=0;points=[];autosize=1;fontColor=none;" parent="vX9UZndPWUMwB3qCK8qp-1" vertex="1">
          <mxGeometry y="40" width="160" height="20" as="geometry" />
        </mxCell>
        <mxCell id="vX9UZndPWUMwB3qCK8qp-4" value="+ Close()" style="text;html=1;align=left;verticalAlign=middle;resizable=0;points=[];autosize=1;fontColor=none;" parent="vX9UZndPWUMwB3qCK8qp-1" vertex="1">
          <mxGeometry y="60" width="160" height="20" as="geometry" />
        </mxCell>
        <mxCell id="vX9UZndPWUMwB3qCK8qp-5" value="MenuContent" style="swimlane;fontStyle=1;align=center;verticalAlign=top;childLayout=stackLayout;horizontal=1;startSize=26;horizontalStack=0;resizeParent=1;resizeParentMax=0;resizeLast=0;collapsible=1;marginBottom=0;fontColor=none;" parent="WIyWlLk6GJQsqaUBKTNV-1" vertex="1">
          <mxGeometry x="1520" y="-560" width="160" height="200" as="geometry" />
        </mxCell>
        <mxCell id="vX9UZndPWUMwB3qCK8qp-6" value="+ Menu : List{Dict}&amp;nbsp;" style="text;html=1;align=left;verticalAlign=middle;resizable=0;points=[];autosize=1;" parent="vX9UZndPWUMwB3qCK8qp-5" vertex="1">
          <mxGeometry y="26" width="160" height="20" as="geometry" />
        </mxCell>
        <mxCell id="vX9UZndPWUMwB3qCK8qp-7" value="" style="line;strokeWidth=1;fillColor=none;align=left;verticalAlign=middle;spacingTop=-1;spacingLeft=3;spacingRight=3;rotatable=0;labelPosition=right;points=[];portConstraint=eastwest;" parent="vX9UZndPWUMwB3qCK8qp-5" vertex="1">
          <mxGeometry y="46" width="160" height="4" as="geometry" />
        </mxCell>
        <mxCell id="vX9UZndPWUMwB3qCK8qp-8" value="+ IndiceActions()" style="text;html=1;align=left;verticalAlign=middle;resizable=0;points=[];autosize=1;fontColor=none;" parent="vX9UZndPWUMwB3qCK8qp-5" vertex="1">
          <mxGeometry y="50" width="160" height="20" as="geometry" />
        </mxCell>
        <mxCell id="vX9UZndPWUMwB3qCK8qp-9" value="+ Connexion()" style="text;html=1;align=left;verticalAlign=middle;resizable=0;points=[];autosize=1;fontColor=none;" parent="vX9UZndPWUMwB3qCK8qp-5" vertex="1">
          <mxGeometry y="70" width="160" height="20" as="geometry" />
        </mxCell>
        <mxCell id="vX9UZndPWUMwB3qCK8qp-10" value="+ BeginGameMenu()" style="text;html=1;align=left;verticalAlign=middle;resizable=0;points=[];autosize=1;fontColor=none;" parent="vX9UZndPWUMwB3qCK8qp-5" vertex="1">
          <mxGeometry y="90" width="160" height="20" as="geometry" />
        </mxCell>
        <mxCell id="vX9UZndPWUMwB3qCK8qp-11" value="+ EndGameMenu()" style="text;html=1;align=left;verticalAlign=middle;resizable=0;points=[];autosize=1;fontColor=none;" parent="vX9UZndPWUMwB3qCK8qp-5" vertex="1">
          <mxGeometry y="110" width="160" height="20" as="geometry" />
        </mxCell>
        <mxCell id="vX9UZndPWUMwB3qCK8qp-12" value="+ InGameMenu()" style="text;html=1;align=left;verticalAlign=middle;resizable=0;points=[];autosize=1;fontColor=none;" parent="vX9UZndPWUMwB3qCK8qp-5" vertex="1">
          <mxGeometry y="130" width="160" height="20" as="geometry" />
        </mxCell>
        <mxCell id="vX9UZndPWUMwB3qCK8qp-13" value="&lt;span style=&quot;color: rgb(0 , 0 , 0) ; font-family: &amp;#34;helvetica&amp;#34; ; font-size: 12px ; font-style: normal ; font-weight: 400 ; letter-spacing: normal ; text-align: left ; text-indent: 0px ; text-transform: none ; word-spacing: 0px ; background-color: rgb(248 , 249 , 250) ; display: inline ; float: none&quot;&gt;+ UserMenu()&lt;/span&gt;" style="text;whiteSpace=wrap;html=1;" parent="vX9UZndPWUMwB3qCK8qp-5" vertex="1">
          <mxGeometry y="150" width="160" height="20" as="geometry" />
        </mxCell>
        <mxCell id="vX9UZndPWUMwB3qCK8qp-14" value="&lt;span style=&quot;color: rgb(0 , 0 , 0) ; font-family: &amp;#34;helvetica&amp;#34; ; font-size: 12px ; font-style: normal ; font-weight: 400 ; letter-spacing: normal ; text-align: left ; text-indent: 0px ; text-transform: none ; word-spacing: 0px ; background-color: rgb(248 , 249 , 250) ; display: inline ; float: none&quot;&gt;+ AdminMenu()&lt;/span&gt;" style="text;whiteSpace=wrap;html=1;" parent="vX9UZndPWUMwB3qCK8qp-5" vertex="1">
          <mxGeometry y="170" width="160" height="30" as="geometry" />
        </mxCell>
        <mxCell id="vX9UZndPWUMwB3qCK8qp-15" value="MenuInterface" style="swimlane;fontStyle=1;align=center;verticalAlign=top;childLayout=stackLayout;horizontal=1;startSize=26;horizontalStack=0;resizeParent=1;resizeParentMax=0;resizeLast=0;collapsible=1;marginBottom=0;fontColor=none;" parent="WIyWlLk6GJQsqaUBKTNV-1" vertex="1">
          <mxGeometry x="1110" y="-380" width="160" height="100" as="geometry" />
        </mxCell>
        <mxCell id="vX9UZndPWUMwB3qCK8qp-16" value="" style="line;strokeWidth=1;fillColor=none;align=left;verticalAlign=middle;spacingTop=-1;spacingLeft=3;spacingRight=3;rotatable=0;labelPosition=right;points=[];portConstraint=eastwest;" parent="vX9UZndPWUMwB3qCK8qp-15" vertex="1">
          <mxGeometry y="26" width="160" height="14" as="geometry" />
        </mxCell>
        <mxCell id="vX9UZndPWUMwB3qCK8qp-17" value="+ MenuOuverture()" style="text;html=1;align=left;verticalAlign=middle;resizable=0;points=[];autosize=1;fontColor=none;" parent="vX9UZndPWUMwB3qCK8qp-15" vertex="1">
          <mxGeometry y="40" width="160" height="20" as="geometry" />
        </mxCell>
        <mxCell id="vX9UZndPWUMwB3qCK8qp-18" value="+ NouveauMenu()" style="text;html=1;align=left;verticalAlign=middle;resizable=0;points=[];autosize=1;fontColor=none;" parent="vX9UZndPWUMwB3qCK8qp-15" vertex="1">
          <mxGeometry y="60" width="160" height="20" as="geometry" />
        </mxCell>
        <mxCell id="vX9UZndPWUMwB3qCK8qp-19" value="+ MenuFermeture()" style="text;html=1;align=left;verticalAlign=middle;resizable=0;points=[];autosize=1;fontColor=none;" parent="vX9UZndPWUMwB3qCK8qp-15" vertex="1">
          <mxGeometry y="80" width="160" height="20" as="geometry" />
        </mxCell>
        <mxCell id="MVKSW0jM2tbk2f1vbTIU-8" value="AbstractGame" style="swimlane;fontStyle=1;align=center;verticalAlign=top;childLayout=stackLayout;horizontal=1;startSize=26;horizontalStack=0;resizeParent=1;resizeParentMax=0;resizeLast=0;collapsible=1;marginBottom=0;" parent="WIyWlLk6GJQsqaUBKTNV-1" vertex="1">
          <mxGeometry x="510" y="400" width="160" height="230" as="geometry" />
        </mxCell>
        <mxCell id="MVKSW0jM2tbk2f1vbTIU-164" value="+numberPlayer : num" style="text;html=1;align=left;verticalAlign=middle;resizable=0;points=[];autosize=1;fontColor=none;" parent="MVKSW0jM2tbk2f1vbTIU-8" vertex="1">
          <mxGeometry y="26" width="160" height="20" as="geometry" />
        </mxCell>
        <mxCell id="MVKSW0jM2tbk2f1vbTIU-165" value="+list_cards : str" style="text;html=1;align=left;verticalAlign=middle;resizable=0;points=[];autosize=1;fontColor=none;" parent="MVKSW0jM2tbk2f1vbTIU-8" vertex="1">
          <mxGeometry y="46" width="160" height="20" as="geometry" />
        </mxCell>
        <mxCell id="MVKSW0jM2tbk2f1vbTIU-166" value="+conditionVictoire : str" style="text;html=1;align=left;verticalAlign=middle;resizable=0;points=[];autosize=1;fontColor=none;" parent="MVKSW0jM2tbk2f1vbTIU-8" vertex="1">
          <mxGeometry y="66" width="160" height="20" as="geometry" />
        </mxCell>
        <mxCell id="MVKSW0jM2tbk2f1vbTIU-167" value="+arrêtTour : str" style="text;html=1;align=left;verticalAlign=middle;resizable=0;points=[];autosize=1;fontColor=none;" parent="MVKSW0jM2tbk2f1vbTIU-8" vertex="1">
          <mxGeometry y="86" width="160" height="20" as="geometry" />
        </mxCell>
        <mxCell id="gtPNyip63HOGCp3EMdQr-17" value="+finished : bool" style="text;html=1;align=left;verticalAlign=middle;resizable=0;points=[];autosize=1;fontColor=none;" parent="MVKSW0jM2tbk2f1vbTIU-8" vertex="1">
          <mxGeometry y="106" width="160" height="20" as="geometry" />
        </mxCell>
        <mxCell id="MVKSW0jM2tbk2f1vbTIU-10" value="" style="line;strokeWidth=1;fillColor=none;align=left;verticalAlign=middle;spacingTop=-1;spacingLeft=3;spacingRight=3;rotatable=0;labelPosition=right;points=[];portConstraint=eastwest;" parent="MVKSW0jM2tbk2f1vbTIU-8" vertex="1">
          <mxGeometry y="126" width="160" height="14" as="geometry" />
        </mxCell>
        <mxCell id="6pODGFfM2kmJy-mxRK_K-4" value="+ CheckPlayerNumber()" style="text;html=1;align=left;verticalAlign=middle;resizable=0;points=[];autosize=1;fontColor=none;" parent="MVKSW0jM2tbk2f1vbTIU-8" vertex="1">
          <mxGeometry y="140" width="160" height="20" as="geometry" />
        </mxCell>
        <mxCell id="6pODGFfM2kmJy-mxRK_K-5" value="+ CheckPlayedCard()" style="text;html=1;align=left;verticalAlign=middle;resizable=0;points=[];autosize=1;fontColor=none;" parent="MVKSW0jM2tbk2f1vbTIU-8" vertex="1">
          <mxGeometry y="160" width="160" height="20" as="geometry" />
        </mxCell>
        <mxCell id="6pODGFfM2kmJy-mxRK_K-16" value="+ GameLoop()" style="text;html=1;align=left;verticalAlign=middle;resizable=0;points=[];autosize=1;fontColor=none;" parent="MVKSW0jM2tbk2f1vbTIU-8" vertex="1">
          <mxGeometry y="180" width="160" height="20" as="geometry" />
        </mxCell>
        <mxCell id="6pODGFfM2kmJy-mxRK_K-17" value="&lt;span style=&quot;color: rgb(0 , 0 , 0) ; font-family: &amp;#34;helvetica&amp;#34; ; font-size: 12px ; font-style: normal ; font-weight: 400 ; letter-spacing: normal ; text-align: left ; text-indent: 0px ; text-transform: none ; word-spacing: 0px ; background-color: rgb(248 , 249 , 250) ; display: inline ; float: none&quot;&gt;+ TourLoop()&lt;/span&gt;" style="text;whiteSpace=wrap;html=1;" parent="MVKSW0jM2tbk2f1vbTIU-8" vertex="1">
          <mxGeometry y="200" width="160" height="30" as="geometry" />
        </mxCell>
        <mxCell id="gtPNyip63HOGCp3EMdQr-10" value="GameDAO" style="swimlane;fontStyle=1;align=center;verticalAlign=top;childLayout=stackLayout;horizontal=1;startSize=26;horizontalStack=0;resizeParent=1;resizeParentMax=0;resizeLast=0;collapsible=1;marginBottom=0;fontColor=none;" parent="WIyWlLk6GJQsqaUBKTNV-1" vertex="1">
          <mxGeometry x="830" y="462" width="180" height="112" as="geometry" />
        </mxCell>
        <mxCell id="gtPNyip63HOGCp3EMdQr-11" value="" style="line;strokeWidth=1;fillColor=none;align=left;verticalAlign=middle;spacingTop=-1;spacingLeft=3;spacingRight=3;rotatable=0;labelPosition=right;points=[];portConstraint=eastwest;" parent="gtPNyip63HOGCp3EMdQr-10" vertex="1">
          <mxGeometry y="26" width="180" height="8" as="geometry" />
        </mxCell>
        <mxCell id="gtPNyip63HOGCp3EMdQr-12" value="+ saveGame() " style="text;strokeColor=none;fillColor=none;align=left;verticalAlign=top;spacingLeft=4;spacingRight=4;overflow=hidden;rotatable=0;points=[[0,0.5],[1,0.5]];portConstraint=eastwest;" parent="gtPNyip63HOGCp3EMdQr-10" vertex="1">
          <mxGeometry y="34" width="180" height="26" as="geometry" />
        </mxCell>
        <mxCell id="gtPNyip63HOGCp3EMdQr-13" value="+ FetchCurrentGame() " style="text;strokeColor=none;fillColor=none;align=left;verticalAlign=top;spacingLeft=4;spacingRight=4;overflow=hidden;rotatable=0;points=[[0,0.5],[1,0.5]];portConstraint=eastwest;" parent="gtPNyip63HOGCp3EMdQr-10" vertex="1">
          <mxGeometry y="60" width="180" height="26" as="geometry" />
        </mxCell>
        <mxCell id="gtPNyip63HOGCp3EMdQr-14" value="+ FetchSavedGame() " style="text;strokeColor=none;fillColor=none;align=left;verticalAlign=top;spacingLeft=4;spacingRight=4;overflow=hidden;rotatable=0;points=[[0,0.5],[1,0.5]];portConstraint=eastwest;" parent="gtPNyip63HOGCp3EMdQr-10" vertex="1">
          <mxGeometry y="86" width="180" height="26" as="geometry" />
        </mxCell>
        <mxCell id="MVKSW0jM2tbk2f1vbTIU-67" value="Admin" style="swimlane;fontStyle=1;align=center;verticalAlign=top;childLayout=stackLayout;horizontal=1;startSize=26;horizontalStack=0;resizeParent=1;resizeParentMax=0;resizeLast=0;collapsible=1;marginBottom=0;fontColor=none;" parent="WIyWlLk6GJQsqaUBKTNV-1" vertex="1">
          <mxGeometry x="380" y="-70" width="150" height="74" as="geometry" />
        </mxCell>
        <mxCell id="MVKSW0jM2tbk2f1vbTIU-68" value="" style="line;strokeWidth=1;fillColor=none;align=left;verticalAlign=middle;spacingTop=-1;spacingLeft=3;spacingRight=3;rotatable=0;labelPosition=right;points=[];portConstraint=eastwest;" parent="MVKSW0jM2tbk2f1vbTIU-67" vertex="1">
          <mxGeometry y="26" width="150" height="8" as="geometry" />
        </mxCell>
        <mxCell id="YCm6hbGx7Tqcxz9hwrIw-6" value="+createUserAccount()" style="text;html=1;strokeColor=none;fillColor=none;align=left;verticalAlign=middle;whiteSpace=wrap;rounded=0;" parent="MVKSW0jM2tbk2f1vbTIU-67" vertex="1">
          <mxGeometry y="34" width="150" height="20" as="geometry" />
        </mxCell>
        <mxCell id="YCm6hbGx7Tqcxz9hwrIw-7" value="+deleteUserAccount()" style="text;html=1;strokeColor=none;fillColor=none;align=left;verticalAlign=middle;whiteSpace=wrap;rounded=0;" parent="MVKSW0jM2tbk2f1vbTIU-67" vertex="1">
          <mxGeometry y="54" width="150" height="20" as="geometry" />
        </mxCell>
        <mxCell id="MVKSW0jM2tbk2f1vbTIU-12" value="Statistiques" style="swimlane;fontStyle=1;align=center;verticalAlign=top;childLayout=stackLayout;horizontal=1;startSize=26;horizontalStack=0;resizeParent=1;resizeParentMax=0;resizeLast=0;collapsible=1;marginBottom=0;" parent="WIyWlLk6GJQsqaUBKTNV-1" vertex="1">
          <mxGeometry x="420" y="77" width="160" height="80" as="geometry" />
        </mxCell>
        <mxCell id="EFQg02jSNUdTk51ZG_iw-7" value="+ numberVictory(game): num" style="text;html=1;strokeColor=none;fillColor=none;align=left;verticalAlign=middle;whiteSpace=wrap;rounded=0;" parent="MVKSW0jM2tbk2f1vbTIU-12" vertex="1">
          <mxGeometry y="26" width="160" height="20" as="geometry" />
        </mxCell>
        <mxCell id="6pODGFfM2kmJy-mxRK_K-25" value="+ playerId: str" style="text;html=1;strokeColor=none;fillColor=none;align=left;verticalAlign=middle;whiteSpace=wrap;rounded=0;" parent="MVKSW0jM2tbk2f1vbTIU-12" vertex="1">
          <mxGeometry y="46" width="160" height="20" as="geometry" />
        </mxCell>
        <mxCell id="MVKSW0jM2tbk2f1vbTIU-14" value="" style="line;strokeWidth=1;fillColor=none;align=left;verticalAlign=middle;spacingTop=-1;spacingLeft=3;spacingRight=3;rotatable=0;labelPosition=right;points=[];portConstraint=eastwest;" parent="MVKSW0jM2tbk2f1vbTIU-12" vertex="1">
          <mxGeometry y="66" width="160" height="14" as="geometry" />
        </mxCell>
        <mxCell id="MVKSW0jM2tbk2f1vbTIU-59" value="Player" style="swimlane;fontStyle=1;align=center;verticalAlign=top;childLayout=stackLayout;horizontal=1;startSize=26;horizontalStack=0;resizeParent=1;resizeParentMax=0;resizeLast=0;collapsible=1;marginBottom=0;fontColor=none;" parent="WIyWlLk6GJQsqaUBKTNV-1" vertex="1">
          <mxGeometry x="620" y="-84" width="160" height="134" as="geometry" />
        </mxCell>
        <mxCell id="MVKSW0jM2tbk2f1vbTIU-61" value="" style="line;strokeWidth=1;fillColor=none;align=left;verticalAlign=middle;spacingTop=-1;spacingLeft=3;spacingRight=3;rotatable=0;labelPosition=right;points=[];portConstraint=eastwest;" parent="MVKSW0jM2tbk2f1vbTIU-59" vertex="1">
          <mxGeometry y="26" width="160" height="8" as="geometry" />
        </mxCell>
        <mxCell id="gtPNyip63HOGCp3EMdQr-6" value="+ loadGame()" style="text;html=1;align=left;verticalAlign=middle;resizable=0;points=[];autosize=1;fontColor=none;" parent="MVKSW0jM2tbk2f1vbTIU-59" vertex="1">
          <mxGeometry y="34" width="160" height="20" as="geometry" />
        </mxCell>
        <mxCell id="6pODGFfM2kmJy-mxRK_K-24" value="+ ChangePassword()" style="text;html=1;align=left;verticalAlign=middle;resizable=0;points=[];autosize=1;fontColor=none;" parent="MVKSW0jM2tbk2f1vbTIU-59" vertex="1">
          <mxGeometry y="54" width="160" height="20" as="geometry" />
        </mxCell>
        <mxCell id="gtPNyip63HOGCp3EMdQr-18" value="+ DisplayFinishedGame()" style="text;html=1;align=left;verticalAlign=middle;resizable=0;points=[];autosize=1;fontColor=none;" parent="MVKSW0jM2tbk2f1vbTIU-59" vertex="1">
          <mxGeometry y="74" width="160" height="20" as="geometry" />
        </mxCell>
        <mxCell id="YCm6hbGx7Tqcxz9hwrIw-9" value="+seeScores()" style="text;html=1;strokeColor=none;fillColor=none;align=left;verticalAlign=middle;whiteSpace=wrap;rounded=0;" parent="MVKSW0jM2tbk2f1vbTIU-59" vertex="1">
          <mxGeometry y="94" width="160" height="20" as="geometry" />
        </mxCell>
        <mxCell id="YCm6hbGx7Tqcxz9hwrIw-10" value="+ContinuePreviousGame()" style="text;html=1;strokeColor=none;fillColor=none;align=left;verticalAlign=middle;whiteSpace=wrap;rounded=0;" parent="MVKSW0jM2tbk2f1vbTIU-59" vertex="1">
          <mxGeometry y="114" width="160" height="20" as="geometry" />
        </mxCell>
        <mxCell id="j5mQaF7iKfYprfHEsIhR-0" value="" style="endArrow=open;html=1;entryX=0;entryY=1;entryDx=0;entryDy=0;exitX=1.009;exitY=0.878;exitDx=0;exitDy=0;exitPerimeter=0;dashed=1;endFill=0;" edge="1" parent="WIyWlLk6GJQsqaUBKTNV-1" source="gtPNyip63HOGCp3EMdQr-12" target="YCm6hbGx7Tqcxz9hwrIw-0">
          <mxGeometry width="50" height="50" relative="1" as="geometry">
            <mxPoint x="1020" y="530" as="sourcePoint" />
            <mxPoint x="1070" y="480" as="targetPoint" />
            <Array as="points">
              <mxPoint x="1050" y="519" />
              <mxPoint x="1050" y="280" />
              <mxPoint x="1050" y="22" />
            </Array>
          </mxGeometry>
        </mxCell>
        <mxCell id="j5mQaF7iKfYprfHEsIhR-1" value="&amp;lt;&amp;lt;Use&amp;gt;&amp;gt;" style="text;html=1;strokeColor=none;fillColor=none;align=center;verticalAlign=middle;whiteSpace=wrap;rounded=0;fontColor=none;" vertex="1" parent="WIyWlLk6GJQsqaUBKTNV-1">
          <mxGeometry x="1090" y="-3" width="40" height="20" as="geometry" />
        </mxCell>
        <mxCell id="j5mQaF7iKfYprfHEsIhR-2" value="" style="endArrow=open;html=1;dashed=1;entryX=0;entryY=0;entryDx=0;entryDy=0;exitX=1;exitY=0.5;exitDx=0;exitDy=0;endFill=0;" edge="1" parent="WIyWlLk6GJQsqaUBKTNV-1" source="gtPNyip63HOGCp3EMdQr-13" target="YCm6hbGx7Tqcxz9hwrIw-3">
          <mxGeometry width="50" height="50" relative="1" as="geometry">
            <mxPoint x="1050" y="268" as="sourcePoint" />
            <mxPoint x="1100" y="218" as="targetPoint" />
            <Array as="points">
              <mxPoint x="1070" y="535" />
              <mxPoint x="1070" y="270" />
            </Array>
          </mxGeometry>
        </mxCell>
        <mxCell id="MVKSW0jM2tbk2f1vbTIU-51" value="HandDAO" style="swimlane;fontStyle=1;align=center;verticalAlign=top;childLayout=stackLayout;horizontal=1;startSize=26;horizontalStack=0;resizeParent=1;resizeParentMax=0;resizeLast=0;collapsible=1;marginBottom=0;fontColor=none;" parent="WIyWlLk6GJQsqaUBKTNV-1" vertex="1">
          <mxGeometry x="1140" y="-24" width="190" height="74" as="geometry" />
        </mxCell>
        <mxCell id="YCm6hbGx7Tqcxz9hwrIw-0" value="+saveHandinDatabase()" style="text;html=1;strokeColor=none;fillColor=none;align=left;verticalAlign=middle;whiteSpace=wrap;rounded=0;" parent="MVKSW0jM2tbk2f1vbTIU-51" vertex="1">
          <mxGeometry y="26" width="190" height="20" as="geometry" />
        </mxCell>
        <mxCell id="YCm6hbGx7Tqcxz9hwrIw-2" value="+getPreviousHandfromDatabase()" style="text;html=1;strokeColor=none;fillColor=none;align=left;verticalAlign=middle;whiteSpace=wrap;rounded=0;" parent="MVKSW0jM2tbk2f1vbTIU-51" vertex="1">
          <mxGeometry y="46" width="190" height="20" as="geometry" />
        </mxCell>
        <mxCell id="MVKSW0jM2tbk2f1vbTIU-52" value="" style="line;strokeWidth=1;fillColor=none;align=left;verticalAlign=middle;spacingTop=-1;spacingLeft=3;spacingRight=3;rotatable=0;labelPosition=right;points=[];portConstraint=eastwest;" parent="MVKSW0jM2tbk2f1vbTIU-51" vertex="1">
          <mxGeometry y="66" width="190" height="8" as="geometry" />
        </mxCell>
        <mxCell id="MVKSW0jM2tbk2f1vbTIU-79" value="PileDAO" style="swimlane;fontStyle=1;align=center;verticalAlign=top;childLayout=stackLayout;horizontal=1;startSize=26;horizontalStack=0;resizeParent=1;resizeParentMax=0;resizeLast=0;collapsible=1;marginBottom=0;fontColor=none;" parent="WIyWlLk6GJQsqaUBKTNV-1" vertex="1">
          <mxGeometry x="1150" y="244" width="160" height="74" as="geometry" />
        </mxCell>
        <mxCell id="YCm6hbGx7Tqcxz9hwrIw-3" value="+savePileInDataBase()" style="text;html=1;strokeColor=none;fillColor=none;align=left;verticalAlign=middle;whiteSpace=wrap;rounded=0;" parent="MVKSW0jM2tbk2f1vbTIU-79" vertex="1">
          <mxGeometry y="26" width="160" height="20" as="geometry" />
        </mxCell>
        <mxCell id="YCm6hbGx7Tqcxz9hwrIw-5" value="+getPreviousPiles()" style="text;html=1;strokeColor=none;fillColor=none;align=left;verticalAlign=middle;whiteSpace=wrap;rounded=0;" parent="MVKSW0jM2tbk2f1vbTIU-79" vertex="1">
          <mxGeometry y="46" width="160" height="20" as="geometry" />
        </mxCell>
        <mxCell id="MVKSW0jM2tbk2f1vbTIU-81" value="" style="line;strokeWidth=1;fillColor=none;align=left;verticalAlign=middle;spacingTop=-1;spacingLeft=3;spacingRight=3;rotatable=0;labelPosition=right;points=[];portConstraint=eastwest;" parent="MVKSW0jM2tbk2f1vbTIU-79" vertex="1">
          <mxGeometry y="66" width="160" height="8" as="geometry" />
        </mxCell>
        <mxCell id="MVKSW0jM2tbk2f1vbTIU-34" value="Pile" style="swimlane;fontStyle=1;align=center;verticalAlign=top;childLayout=stackLayout;horizontal=1;startSize=26;horizontalStack=0;resizeParent=1;resizeParentMax=0;resizeLast=0;collapsible=1;marginBottom=0;fontColor=none;" parent="WIyWlLk6GJQsqaUBKTNV-1" vertex="1">
          <mxGeometry x="1150" y="360" width="160" height="120" as="geometry" />
        </mxCell>
        <mxCell id="6pODGFfM2kmJy-mxRK_K-6" value="+ idPile : str" style="text;html=1;align=left;verticalAlign=middle;resizable=0;points=[];autosize=1;fontColor=none;" parent="MVKSW0jM2tbk2f1vbTIU-34" vertex="1">
          <mxGeometry y="26" width="160" height="20" as="geometry" />
        </mxCell>
        <mxCell id="6pODGFfM2kmJy-mxRK_K-7" value="+ idGame : str" style="text;html=1;align=left;verticalAlign=middle;resizable=0;points=[];autosize=1;fontColor=none;" parent="MVKSW0jM2tbk2f1vbTIU-34" vertex="1">
          <mxGeometry y="46" width="160" height="20" as="geometry" />
        </mxCell>
        <mxCell id="MVKSW0jM2tbk2f1vbTIU-36" value="" style="line;strokeWidth=1;fillColor=none;align=left;verticalAlign=middle;spacingTop=-1;spacingLeft=3;spacingRight=3;rotatable=0;labelPosition=right;points=[];portConstraint=eastwest;" parent="MVKSW0jM2tbk2f1vbTIU-34" vertex="1">
          <mxGeometry y="66" width="160" height="14" as="geometry" />
        </mxCell>
        <mxCell id="6pODGFfM2kmJy-mxRK_K-3" value="+ DrawCard()" style="text;html=1;align=left;verticalAlign=middle;resizable=0;points=[];autosize=1;fontColor=none;" parent="MVKSW0jM2tbk2f1vbTIU-34" vertex="1">
          <mxGeometry y="80" width="160" height="20" as="geometry" />
        </mxCell>
        <mxCell id="6pODGFfM2kmJy-mxRK_K-2" value="+ addCard(Card)" style="text;html=1;align=left;verticalAlign=middle;resizable=0;points=[];autosize=1;fontColor=none;" parent="MVKSW0jM2tbk2f1vbTIU-34" vertex="1">
          <mxGeometry y="100" width="160" height="20" as="geometry" />
        </mxCell>
        <mxCell id="j5mQaF7iKfYprfHEsIhR-3" value="&amp;lt;&amp;lt;Use&amp;gt;&amp;gt;" style="text;html=1;strokeColor=none;fillColor=none;align=center;verticalAlign=middle;whiteSpace=wrap;rounded=0;fontColor=none;" vertex="1" parent="WIyWlLk6GJQsqaUBKTNV-1">
          <mxGeometry x="1090" y="244" width="40" height="20" as="geometry" />
        </mxCell>
        <mxCell id="MVKSW0jM2tbk2f1vbTIU-47" value="Hand" style="swimlane;fontStyle=1;align=center;verticalAlign=top;childLayout=stackLayout;horizontal=1;startSize=26;horizontalStack=0;resizeParent=1;resizeParentMax=0;resizeLast=0;collapsible=1;marginBottom=0;fontColor=none;" parent="WIyWlLk6GJQsqaUBKTNV-1" vertex="1">
          <mxGeometry x="1155" y="98" width="160" height="100" as="geometry" />
        </mxCell>
        <mxCell id="MVKSW0jM2tbk2f1vbTIU-115" value="+card_list : List of Cards" style="text;html=1;align=left;verticalAlign=middle;resizable=0;points=[];autosize=1;fontColor=none;" parent="MVKSW0jM2tbk2f1vbTIU-47" vertex="1">
          <mxGeometry y="26" width="160" height="20" as="geometry" />
        </mxCell>
        <mxCell id="MVKSW0jM2tbk2f1vbTIU-49" value="" style="line;strokeWidth=1;fillColor=none;align=left;verticalAlign=middle;spacingTop=-1;spacingLeft=3;spacingRight=3;rotatable=0;labelPosition=right;points=[];portConstraint=eastwest;" parent="MVKSW0jM2tbk2f1vbTIU-47" vertex="1">
          <mxGeometry y="46" width="160" height="14" as="geometry" />
        </mxCell>
        <mxCell id="6pODGFfM2kmJy-mxRK_K-0" value="+ Poser(Carte)" style="text;html=1;align=left;verticalAlign=middle;resizable=0;points=[];autosize=1;fontColor=none;" parent="MVKSW0jM2tbk2f1vbTIU-47" vertex="1">
          <mxGeometry y="60" width="160" height="20" as="geometry" />
        </mxCell>
        <mxCell id="6pODGFfM2kmJy-mxRK_K-1" value="+ Tirer()" style="text;html=1;align=left;verticalAlign=middle;resizable=0;points=[];autosize=1;fontColor=none;" parent="MVKSW0jM2tbk2f1vbTIU-47" vertex="1">
          <mxGeometry y="80" width="160" height="20" as="geometry" />
        </mxCell>
        <mxCell id="j5mQaF7iKfYprfHEsIhR-4" value="&amp;lt;&amp;lt;Create&amp;gt;&amp;gt;" style="text;html=1;strokeColor=none;fillColor=none;align=center;verticalAlign=middle;whiteSpace=wrap;rounded=0;fontColor=none;" vertex="1" parent="WIyWlLk6GJQsqaUBKTNV-1">
          <mxGeometry x="1260" y="70" width="40" height="20" as="geometry" />
        </mxCell>
        <mxCell id="j5mQaF7iKfYprfHEsIhR-5" value="&amp;lt;&amp;lt;Create&amp;gt;&amp;gt;" style="text;html=1;strokeColor=none;fillColor=none;align=center;verticalAlign=middle;whiteSpace=wrap;rounded=0;fontColor=none;" vertex="1" parent="WIyWlLk6GJQsqaUBKTNV-1">
          <mxGeometry x="930" y="400" width="40" height="20" as="geometry" />
        </mxCell>
        <mxCell id="j5mQaF7iKfYprfHEsIhR-6" value="&amp;lt;&amp;lt;Create&amp;gt;&amp;gt;" style="text;html=1;strokeColor=none;fillColor=none;align=center;verticalAlign=middle;whiteSpace=wrap;rounded=0;fontColor=none;" vertex="1" parent="WIyWlLk6GJQsqaUBKTNV-1">
          <mxGeometry x="890" y="-130" width="40" height="20" as="geometry" />
        </mxCell>
        <mxCell id="MVKSW0jM2tbk2f1vbTIU-0" value="GameService" style="swimlane;fontStyle=1;align=center;verticalAlign=top;childLayout=stackLayout;horizontal=1;startSize=26;horizontalStack=0;resizeParent=1;resizeParentMax=0;resizeLast=0;collapsible=1;marginBottom=0;" parent="WIyWlLk6GJQsqaUBKTNV-1" vertex="1">
          <mxGeometry x="840" y="300" width="160" height="80" as="geometry" />
        </mxCell>
        <mxCell id="MVKSW0jM2tbk2f1vbTIU-2" value="" style="line;strokeWidth=1;fillColor=none;align=left;verticalAlign=middle;spacingTop=-1;spacingLeft=3;spacingRight=3;rotatable=0;labelPosition=right;points=[];portConstraint=eastwest;" parent="MVKSW0jM2tbk2f1vbTIU-0" vertex="1">
          <mxGeometry y="26" width="160" height="8" as="geometry" />
        </mxCell>
        <mxCell id="MVKSW0jM2tbk2f1vbTIU-3" value="+ DisplayGameState()&#xa;+ initJeu(game)" style="text;strokeColor=none;fillColor=none;align=left;verticalAlign=top;spacingLeft=4;spacingRight=4;overflow=hidden;rotatable=0;points=[[0,0.5],[1,0.5]];portConstraint=eastwest;" parent="MVKSW0jM2tbk2f1vbTIU-0" vertex="1">
          <mxGeometry y="34" width="160" height="46" as="geometry" />
        </mxCell>
        <mxCell id="MVKSW0jM2tbk2f1vbTIU-24" value="Belote" style="swimlane;fontStyle=1;align=center;verticalAlign=top;childLayout=stackLayout;horizontal=1;startSize=26;horizontalStack=0;resizeParent=1;resizeParentMax=0;resizeLast=0;collapsible=1;marginBottom=0;fontColor=none;" parent="WIyWlLk6GJQsqaUBKTNV-1" vertex="1">
          <mxGeometry x="334" y="240" width="160" height="154" as="geometry" />
        </mxCell>
        <mxCell id="6pODGFfM2kmJy-mxRK_K-10" value="+ Atout : Card.color" style="text;html=1;align=left;verticalAlign=middle;resizable=0;points=[];autosize=1;fontColor=none;" parent="MVKSW0jM2tbk2f1vbTIU-24" vertex="1">
          <mxGeometry y="26" width="160" height="20" as="geometry" />
        </mxCell>
        <mxCell id="6pODGFfM2kmJy-mxRK_K-11" value="+ Team : List of Player" style="text;html=1;align=left;verticalAlign=middle;resizable=0;points=[];autosize=1;fontColor=none;" parent="MVKSW0jM2tbk2f1vbTIU-24" vertex="1">
          <mxGeometry y="46" width="160" height="20" as="geometry" />
        </mxCell>
        <mxCell id="6pODGFfM2kmJy-mxRK_K-13" value="+ FirstPlayer : Player.id" style="text;html=1;align=left;verticalAlign=middle;resizable=0;points=[];autosize=1;fontColor=none;" parent="MVKSW0jM2tbk2f1vbTIU-24" vertex="1">
          <mxGeometry y="66" width="160" height="20" as="geometry" />
        </mxCell>
        <mxCell id="gtPNyip63HOGCp3EMdQr-2" value="+ ScoreLocal : List of int" style="text;html=1;align=left;verticalAlign=middle;resizable=0;points=[];autosize=1;fontColor=none;" parent="MVKSW0jM2tbk2f1vbTIU-24" vertex="1">
          <mxGeometry y="86" width="160" height="20" as="geometry" />
        </mxCell>
        <mxCell id="MVKSW0jM2tbk2f1vbTIU-26" value="" style="line;strokeWidth=1;fillColor=none;align=left;verticalAlign=middle;spacingTop=-1;spacingLeft=3;spacingRight=3;rotatable=0;labelPosition=right;points=[];portConstraint=eastwest;" parent="MVKSW0jM2tbk2f1vbTIU-24" vertex="1">
          <mxGeometry y="106" width="160" height="8" as="geometry" />
        </mxCell>
        <mxCell id="6pODGFfM2kmJy-mxRK_K-8" value="+ CountPoint()" style="text;html=1;align=left;verticalAlign=middle;resizable=0;points=[];autosize=1;fontColor=none;" parent="MVKSW0jM2tbk2f1vbTIU-24" vertex="1">
          <mxGeometry y="114" width="160" height="20" as="geometry" />
        </mxCell>
        <mxCell id="6pODGFfM2kmJy-mxRK_K-9" value="+ CreateTeams()" style="text;html=1;align=left;verticalAlign=middle;resizable=0;points=[];autosize=1;fontColor=none;" parent="MVKSW0jM2tbk2f1vbTIU-24" vertex="1">
          <mxGeometry y="134" width="160" height="20" as="geometry" />
        </mxCell>
        <mxCell id="MVKSW0jM2tbk2f1vbTIU-20" value="Poker" style="swimlane;fontStyle=1;align=center;verticalAlign=top;childLayout=stackLayout;horizontal=1;startSize=26;horizontalStack=0;resizeParent=1;resizeParentMax=0;resizeLast=0;collapsible=1;marginBottom=0;fontColor=none;" parent="WIyWlLk6GJQsqaUBKTNV-1" vertex="1">
          <mxGeometry x="510" y="284" width="90" height="34" as="geometry" />
        </mxCell>
        <mxCell id="MVKSW0jM2tbk2f1vbTIU-22" value="" style="line;strokeWidth=1;fillColor=none;align=left;verticalAlign=middle;spacingTop=-1;spacingLeft=3;spacingRight=3;rotatable=0;labelPosition=right;points=[];portConstraint=eastwest;" parent="MVKSW0jM2tbk2f1vbTIU-20" vertex="1">
          <mxGeometry y="26" width="90" height="8" as="geometry" />
        </mxCell>
        <mxCell id="MVKSW0jM2tbk2f1vbTIU-16" value="Solitaire" style="swimlane;fontStyle=1;align=center;verticalAlign=top;childLayout=stackLayout;horizontal=1;startSize=26;horizontalStack=0;resizeParent=1;resizeParentMax=0;resizeLast=0;collapsible=1;marginBottom=0;fontColor=none;" parent="WIyWlLk6GJQsqaUBKTNV-1" vertex="1">
          <mxGeometry x="620" y="311" width="70" height="34" as="geometry" />
        </mxCell>
        <mxCell id="MVKSW0jM2tbk2f1vbTIU-18" value="" style="line;strokeWidth=1;fillColor=none;align=left;verticalAlign=middle;spacingTop=-1;spacingLeft=3;spacingRight=3;rotatable=0;labelPosition=right;points=[];portConstraint=eastwest;" parent="MVKSW0jM2tbk2f1vbTIU-16" vertex="1">
          <mxGeometry y="26" width="70" height="8" as="geometry" />
        </mxCell>
        <mxCell id="j5mQaF7iKfYprfHEsIhR-18" value="" style="endArrow=openThin;html=1;dashed=1;exitX=0.5;exitY=0;exitDx=0;exitDy=0;endFill=0;" edge="1" parent="WIyWlLk6GJQsqaUBKTNV-1" source="MVKSW0jM2tbk2f1vbTIU-0">
          <mxGeometry width="50" height="50" relative="1" as="geometry">
            <mxPoint x="860" y="270" as="sourcePoint" />
            <mxPoint x="852" y="224" as="targetPoint" />
            <Array as="points">
              <mxPoint x="920" y="224" />
            </Array>
          </mxGeometry>
        </mxCell>
        <mxCell id="j5mQaF7iKfYprfHEsIhR-13" value="PlayerGroup" style="swimlane;fontStyle=1;align=center;verticalAlign=top;childLayout=stackLayout;horizontal=1;startSize=26;horizontalStack=0;resizeParent=1;resizeParentMax=0;resizeLast=0;collapsible=1;marginBottom=0;" vertex="1" parent="WIyWlLk6GJQsqaUBKTNV-1">
          <mxGeometry x="690" y="180" width="160" height="78" as="geometry" />
        </mxCell>
        <mxCell id="j5mQaF7iKfYprfHEsIhR-14" value="+id_group : str&#xa;+grouplist : list/dict ? " style="text;strokeColor=none;fillColor=none;align=left;verticalAlign=top;spacingLeft=4;spacingRight=4;overflow=hidden;rotatable=0;points=[[0,0.5],[1,0.5]];portConstraint=eastwest;" vertex="1" parent="j5mQaF7iKfYprfHEsIhR-13">
          <mxGeometry y="26" width="160" height="44" as="geometry" />
        </mxCell>
        <mxCell id="j5mQaF7iKfYprfHEsIhR-15" value="" style="line;strokeWidth=1;fillColor=none;align=left;verticalAlign=middle;spacingTop=-1;spacingLeft=3;spacingRight=3;rotatable=0;labelPosition=right;points=[];portConstraint=eastwest;" vertex="1" parent="j5mQaF7iKfYprfHEsIhR-13">
          <mxGeometry y="70" width="160" height="8" as="geometry" />
        </mxCell>
        <mxCell id="j5mQaF7iKfYprfHEsIhR-19" value="&amp;lt;&amp;lt;Create&amp;gt;&amp;gt;" style="text;html=1;strokeColor=none;fillColor=none;align=center;verticalAlign=middle;whiteSpace=wrap;rounded=0;fontColor=none;" vertex="1" parent="WIyWlLk6GJQsqaUBKTNV-1">
          <mxGeometry x="870" y="230" width="40" height="20" as="geometry" />
        </mxCell>
        <mxCell id="j5mQaF7iKfYprfHEsIhR-20" value="" style="endArrow=none;html=1;exitX=0.75;exitY=0;exitDx=0;exitDy=0;endFill=0;startArrow=diamond;startFill=1;startSize=8;" edge="1" parent="WIyWlLk6GJQsqaUBKTNV-1" source="j5mQaF7iKfYprfHEsIhR-13">
          <mxGeometry width="50" height="50" relative="1" as="geometry">
            <mxPoint x="860" y="270" as="sourcePoint" />
            <mxPoint x="866" y="80" as="targetPoint" />
            <Array as="points">
              <mxPoint x="810" y="80" />
            </Array>
          </mxGeometry>
        </mxCell>
        <mxCell id="MVKSW0jM2tbk2f1vbTIU-94" value="Cards" style="swimlane;fontStyle=1;align=center;verticalAlign=top;childLayout=stackLayout;horizontal=1;startSize=26;horizontalStack=0;resizeParent=1;resizeParentMax=0;resizeLast=0;collapsible=1;marginBottom=0;fontColor=none;" parent="WIyWlLk6GJQsqaUBKTNV-1" vertex="1">
          <mxGeometry x="2010" y="110" width="160" height="140" as="geometry" />
        </mxCell>
        <mxCell id="MVKSW0jM2tbk2f1vbTIU-110" value="+ id_card : str" style="text;html=1;align=left;verticalAlign=middle;resizable=0;points=[];autosize=1;fontColor=none;" parent="MVKSW0jM2tbk2f1vbTIU-94" vertex="1">
          <mxGeometry y="26" width="160" height="20" as="geometry" />
        </mxCell>
        <mxCell id="MVKSW0jM2tbk2f1vbTIU-111" value="+ color : str" style="text;html=1;align=left;verticalAlign=middle;resizable=0;points=[];autosize=1;fontColor=none;" parent="MVKSW0jM2tbk2f1vbTIU-94" vertex="1">
          <mxGeometry y="46" width="160" height="20" as="geometry" />
        </mxCell>
        <mxCell id="j5mQaF7iKfYprfHEsIhR-17" value="+ color : str" style="text;html=1;align=left;verticalAlign=middle;resizable=0;points=[];autosize=1;fontColor=none;" vertex="1" parent="MVKSW0jM2tbk2f1vbTIU-94">
          <mxGeometry y="66" width="160" height="20" as="geometry" />
        </mxCell>
        <mxCell id="MVKSW0jM2tbk2f1vbTIU-107" value="+ figure : str" style="text;html=1;align=left;verticalAlign=middle;resizable=0;points=[];autosize=1;fontColor=none;" parent="MVKSW0jM2tbk2f1vbTIU-94" vertex="1">
          <mxGeometry y="86" width="160" height="20" as="geometry" />
        </mxCell>
        <mxCell id="MVKSW0jM2tbk2f1vbTIU-96" value="" style="line;strokeWidth=1;fillColor=none;align=left;verticalAlign=middle;spacingTop=-1;spacingLeft=3;spacingRight=3;rotatable=0;labelPosition=right;points=[];portConstraint=eastwest;" parent="MVKSW0jM2tbk2f1vbTIU-94" vertex="1">
          <mxGeometry y="106" width="160" height="14" as="geometry" />
        </mxCell>
        <mxCell id="MVKSW0jM2tbk2f1vbTIU-113" value="+seeCard()" style="text;html=1;align=left;verticalAlign=middle;resizable=0;points=[];autosize=1;fontColor=none;" parent="MVKSW0jM2tbk2f1vbTIU-94" vertex="1">
          <mxGeometry y="120" width="160" height="20" as="geometry" />
        </mxCell>
      </root>
    </mxGraphModel>
  </diagram>
</mxfile>
